<mxfile host="Electron" modified="2023-11-13T10:02:34.559Z" agent="Mozilla/5.0 (Windows NT 10.0; Win64; x64) AppleWebKit/537.36 (KHTML, like Gecko) draw.io/22.0.0 Chrome/114.0.5735.289 Electron/25.8.3 Safari/537.36" etag="vIWohx6reQXaXljIznHh" version="22.0.0" type="device">
  <diagram name="Page-1" id="O_PmOZioFjPeb-_aucd5">
    <mxGraphModel dx="1658" dy="820" grid="1" gridSize="10" guides="1" tooltips="1" connect="1" arrows="1" fold="1" page="1" pageScale="1" pageWidth="850" pageHeight="1100" math="0" shadow="0">
      <root>
        <mxCell id="0" />
        <mxCell id="1" parent="0" />
        <mxCell id="S4SufubAIs4m0nFkFNZs-13" value="" style="whiteSpace=wrap;html=1;aspect=fixed;" parent="1" vertex="1">
          <mxGeometry x="20" y="40" width="230" height="230" as="geometry" />
        </mxCell>
        <mxCell id="S4SufubAIs4m0nFkFNZs-8" value="" style="whiteSpace=wrap;html=1;aspect=fixed;" parent="1" vertex="1">
          <mxGeometry x="265" y="260" width="300" height="300" as="geometry" />
        </mxCell>
        <mxCell id="S4SufubAIs4m0nFkFNZs-1" value="players.json" style="shape=card;whiteSpace=wrap;html=1;" parent="1" vertex="1">
          <mxGeometry x="100" y="110" width="80" height="100" as="geometry" />
        </mxCell>
        <mxCell id="S4SufubAIs4m0nFkFNZs-6" style="edgeStyle=orthogonalEdgeStyle;rounded=0;orthogonalLoop=1;jettySize=auto;html=1;entryX=0.425;entryY=-0.033;entryDx=0;entryDy=0;entryPerimeter=0;" parent="1" source="S4SufubAIs4m0nFkFNZs-2" target="S4SufubAIs4m0nFkFNZs-9" edge="1">
          <mxGeometry relative="1" as="geometry">
            <mxPoint x="340" y="360" as="targetPoint" />
          </mxGeometry>
        </mxCell>
        <mxCell id="S4SufubAIs4m0nFkFNZs-2" value="DataProvider" style="rounded=0;whiteSpace=wrap;html=1;" parent="1" vertex="1">
          <mxGeometry x="280" y="270" width="120" height="50" as="geometry" />
        </mxCell>
        <mxCell id="S4SufubAIs4m0nFkFNZs-3" style="edgeStyle=orthogonalEdgeStyle;rounded=0;orthogonalLoop=1;jettySize=auto;html=1;entryX=1.013;entryY=0.62;entryDx=0;entryDy=0;entryPerimeter=0;" parent="1" source="S4SufubAIs4m0nFkFNZs-2" target="S4SufubAIs4m0nFkFNZs-1" edge="1">
          <mxGeometry relative="1" as="geometry" />
        </mxCell>
        <mxCell id="S4SufubAIs4m0nFkFNZs-4" value="loads" style="edgeLabel;html=1;align=center;verticalAlign=middle;resizable=0;points=[];" parent="S4SufubAIs4m0nFkFNZs-3" vertex="1" connectable="0">
          <mxGeometry x="0.0071" y="-3" relative="1" as="geometry">
            <mxPoint as="offset" />
          </mxGeometry>
        </mxCell>
        <mxCell id="S4SufubAIs4m0nFkFNZs-15" style="edgeStyle=orthogonalEdgeStyle;rounded=0;orthogonalLoop=1;jettySize=auto;html=1;" parent="1" source="S4SufubAIs4m0nFkFNZs-5" target="S4SufubAIs4m0nFkFNZs-9" edge="1">
          <mxGeometry relative="1" as="geometry" />
        </mxCell>
        <mxCell id="S4SufubAIs4m0nFkFNZs-16" style="edgeStyle=orthogonalEdgeStyle;rounded=0;orthogonalLoop=1;jettySize=auto;html=1;exitX=0.5;exitY=1;exitDx=0;exitDy=0;entryX=0;entryY=0.5;entryDx=0;entryDy=0;" parent="1" source="S4SufubAIs4m0nFkFNZs-5" target="S4SufubAIs4m0nFkFNZs-14" edge="1">
          <mxGeometry relative="1" as="geometry" />
        </mxCell>
        <mxCell id="S4SufubAIs4m0nFkFNZs-5" value="salaryService" style="rounded=0;whiteSpace=wrap;html=1;" parent="1" vertex="1">
          <mxGeometry x="290" y="430" width="120" height="50" as="geometry" />
        </mxCell>
        <mxCell id="S4SufubAIs4m0nFkFNZs-9" value="playerData" style="rounded=0;whiteSpace=wrap;html=1;" parent="1" vertex="1">
          <mxGeometry x="310" y="370" width="100" height="30" as="geometry" />
        </mxCell>
        <mxCell id="S4SufubAIs4m0nFkFNZs-11" value="" style="sketch=0;pointerEvents=1;shadow=0;dashed=0;html=1;strokeColor=none;fillColor=#434445;aspect=fixed;labelPosition=center;verticalLabelPosition=bottom;verticalAlign=top;align=center;outlineConnect=0;shape=mxgraph.vvd.memory;" parent="1" vertex="1">
          <mxGeometry x="470" y="270" width="78.95" height="30" as="geometry" />
        </mxCell>
        <mxCell id="S4SufubAIs4m0nFkFNZs-12" value="" style="sketch=0;pointerEvents=1;shadow=0;dashed=0;html=1;strokeColor=none;fillColor=#505050;labelPosition=center;verticalLabelPosition=bottom;verticalAlign=top;outlineConnect=0;align=center;shape=mxgraph.office.devices.hard_disk;" parent="1" vertex="1">
          <mxGeometry x="40" y="90" width="40" height="54" as="geometry" />
        </mxCell>
        <mxCell id="S4SufubAIs4m0nFkFNZs-18" style="edgeStyle=orthogonalEdgeStyle;rounded=0;orthogonalLoop=1;jettySize=auto;html=1;" parent="1" source="S4SufubAIs4m0nFkFNZs-14" target="S4SufubAIs4m0nFkFNZs-17" edge="1">
          <mxGeometry relative="1" as="geometry" />
        </mxCell>
        <mxCell id="S4SufubAIs4m0nFkFNZs-14" value="express endpoint" style="rounded=0;whiteSpace=wrap;html=1;" parent="1" vertex="1">
          <mxGeometry x="428.95" y="490" width="120" height="50" as="geometry" />
        </mxCell>
        <mxCell id="S4SufubAIs4m0nFkFNZs-17" value="HTTP" style="sketch=0;outlineConnect=0;fontColor=#232F3E;gradientColor=none;strokeColor=#232F3E;fillColor=#ffffff;dashed=0;verticalLabelPosition=bottom;verticalAlign=top;align=center;html=1;fontSize=12;fontStyle=0;aspect=fixed;shape=mxgraph.aws4.resourceIcon;resIcon=mxgraph.aws4.http_protocol;" parent="1" vertex="1">
          <mxGeometry x="610" y="485" width="60" height="60" as="geometry" />
        </mxCell>
      </root>
    </mxGraphModel>
  </diagram>
</mxfile>
